<svg width="20" height="20" viewBox="0 0 20 20" fill="none" xmlns="http://www.w3.org/2000/svg">
<path d="M13.6439 3.03442C10.1551 3.03442 7.28809 5.86201 7.28809 9.37925V19.3103C7.28809 19.6896 7.59897 19.9999 7.97893 19.9999H11.5713C11.9513 19.9999 12.2622 19.6896 12.2622 19.3103V9.65511C12.2622 8.89649 12.8839 8.2758 13.6439 8.2758C14.4038 8.2758 15.0256 8.89649 15.0256 9.65511V19.3103C15.0256 19.6896 15.3364 19.9999 15.7164 19.9999H19.3088C19.6888 19.9999 19.9997 19.6896 19.9997 19.3103V9.37925C19.9997 5.89649 17.1672 3.03442 13.6439 3.03442Z" fill="#DBD8D7"/>
<path d="M4.28325 6.27588H0.690846C0.310881 6.27588 0 6.58622 0 6.96553V19.3104C0 19.6897 0.310881 20 0.690846 20H4.28325C4.66321 20 4.97409 19.6897 4.97409 19.3104V6.96553C4.97409 6.58622 4.66321 6.27588 4.28325 6.27588Z" fill="#DBD8D7"/>
<path d="M2.48705 0C1.10535 0 0 1.10345 0 2.48276C0 3.86207 1.10535 4.96552 2.48705 4.96552C3.86874 4.96552 4.97409 3.86207 4.97409 2.48276C4.97409 1.10345 3.86874 0 2.48705 0Z" fill="#DBD8D7"/>
</svg>
