<svg width="20" height="20" viewBox="0 0 20 20" fill="none" xmlns="http://www.w3.org/2000/svg">
<path d="M19.7665 0.369765C19.4331 -0.0289051 18.8665 -0.128573 18.4331 0.17043L16.4998 1.49933C15.5998 0.535877 14.3331 0.00431735 12.9665 0.00431735C10.2665 0.00431735 8.03313 2.197 8.03313 4.92125C8.03313 5.31992 8.06646 5.68537 8.16646 6.05081C5.83313 5.55248 4.43313 3.85813 3.8998 0.801657C3.83313 0.402987 3.53313 0.103985 3.13313 0.00431735C2.76646 -0.0953502 2.36646 0.0707624 2.13313 0.369765C2.06646 0.43621 -3.43354 8.07739 4.53313 14.5558C3.76646 16.1837 1.46646 17.579 0.566463 18.0441C0.13313 18.2435 -0.06687 18.7086 0.03313 19.1737C0.13313 19.6388 0.53313 19.9378 0.999797 19.9378H2.73313C12.8665 19.9378 17.4665 14.9212 17.5665 3.69202L19.6665 1.69867C20.0665 1.36644 20.0998 0.768435 19.7665 0.369765Z" fill="#DBD8D7"/>
</svg>
