<svg width="20" height="20" viewBox="0 0 16 20" fill="none" xmlns="http://www.w3.org/2000/svg">
<path d="M7.4645 20C12.1612 20 15.0837 16.5392 15.0837 12.0742C15.0837 10.3908 14.8095 8.87083 12.8987 8.41417C13.3637 7.14083 14.7053 3.4575 14.7053 2.2775C14.7053 1.23833 14.0803 0.3675 12.9662 0.3675C11.1903 0.3675 9.59866 5.51167 9.10033 6.73833C8.7145 5.625 6.90783 0 5.31533 0C4.07783 0 3.497 0.894167 3.497 2.01917C3.497 3.39833 4.85783 6.9725 5.35116 8.3475C5.10116 8.2575 4.83033 8.17917 4.5545 8.17917C3.62283 8.17917 2.632 9.31583 2.632 10.2342C2.632 10.5817 2.827 11.07 2.95033 11.3942C1.482 11.785 0.916997 12.7458 0.916997 14.195C0.91283 17.015 3.63616 20 7.4645 20ZM11.4895 4.21917C11.6495 3.73833 12.3295 1.7075 12.9662 1.7075C13.3087 1.7075 13.4003 2.055 13.4003 2.3325C13.4003 3.07833 11.8645 7.2 11.5253 8.11333L10.172 7.87917L11.4895 4.21917ZM4.747 1.8875V1.88667C4.747 1.42167 5.3245 0.101667 6.5895 3.72667L7.967 7.645C7.34616 7.59417 6.8645 7.5275 6.55866 7.7C6.1245 6.575 4.747 3.02417 4.747 1.8875ZM4.65533 9.53083L4.65616 9.53167C5.822 9.53167 7.327 13.2267 7.327 13.7267C7.327 13.9258 7.132 14.1717 6.90533 14.1717C6.07283 14.1717 3.84366 11.1675 3.84366 10.355C3.847 10.0542 4.34866 9.53083 4.65533 9.53083ZM3.31533 12.5892C3.76866 12.5892 5.47616 14.945 5.47616 15.445C5.47616 15.6367 5.1695 15.7692 5.01116 15.7692C4.37033 15.7692 4.1195 15.1633 2.97783 13.7617C1.79533 14.9217 3.79366 17.1558 5.29866 17.1558C6.337 17.1558 7.01366 16.2108 6.81116 15.515C6.95866 15.515 7.14116 15.5267 7.277 15.4917C7.32116 16.55 7.6395 17.8117 8.937 17.9017C8.937 17.8667 9.017 17.6242 9.017 17.6125C9.017 16.9325 8.59533 16.3392 8.59533 15.6475C8.59533 14.5417 9.45866 13.4717 10.3345 12.8467C10.6528 12.6125 11.0395 12.4675 11.4128 12.335C11.7995 12.1908 12.2095 12.0225 12.5028 11.7333C12.4587 11.2958 12.2762 10.9092 11.8303 10.9092C10.7278 10.9092 7.03033 11.0658 7.03033 9.35833C7.03033 9.09667 7.0345 8.84667 7.72366 8.84667C9.0095 8.84667 12.2737 9.15917 13.2287 9.98333C13.9487 10.6125 14.1962 14.405 11.9945 16.8075L11.992 16.8083C10.8337 18.0583 9.35283 18.7067 7.62533 18.7067C5.26116 18.7067 3.39366 17.4333 2.4945 15.2575C1.81366 13.5625 2.64616 12.5892 3.31533 12.5892ZM8.06616 11.8858C8.45366 12.0075 8.85116 12.0433 9.2495 12.1208C8.9545 12.3317 8.69283 12.59 8.44116 12.8667C8.3295 12.535 8.19366 12.2108 8.06616 11.8858Z" fill="#DBD8D7"/>
</svg>
