<svg width="40" height="40" viewBox="0 0 40 40" fill="none" xmlns="http://www.w3.org/2000/svg">
<path fill-rule="evenodd" clip-rule="evenodd" d="M15.4 13H24.6C25.7531 13 26.4977 13.0016 27.0643 13.0479C27.6077 13.0922 27.8091 13.1676 27.908 13.218C28.2843 13.4097 28.5903 13.7157 28.782 14.092C28.8324 14.1909 28.9078 14.3923 28.9521 14.9357C28.9984 15.5023 29 16.2469 29 17.4V22.6C29 23.7531 28.9984 24.4977 28.9521 25.0643C28.9078 25.6077 28.8324 25.8091 28.782 25.908C28.5903 26.2843 28.2843 26.5903 27.908 26.782C27.8091 26.8324 27.6077 26.9078 27.0643 26.9521C26.4977 26.9984 25.7531 27 24.6 27H15.4C14.2469 27 13.5023 26.9984 12.9357 26.9521C12.3923 26.9078 12.1909 26.8324 12.092 26.782C11.7157 26.5903 11.4097 26.2843 11.218 25.908C11.1676 25.8091 11.0922 25.6077 11.0479 25.0643C11.0016 24.4977 11 23.7531 11 22.6V17.4C11 16.2469 11.0016 15.5023 11.0479 14.9357C11.0922 14.3923 11.1676 14.1909 11.218 14.092C11.4097 13.7157 11.7157 13.4097 12.092 13.218C12.1909 13.1676 12.3923 13.0922 12.9357 13.0479C13.5023 13.0016 14.2469 13 15.4 13ZM9 17.4C9 15.1598 9 14.0397 9.43597 13.184C9.81947 12.4314 10.4314 11.8195 11.184 11.436C12.0397 11 13.1598 11 15.4 11H24.6C26.8402 11 27.9603 11 28.816 11.436C29.5686 11.8195 30.1805 12.4314 30.564 13.184C31 14.0397 31 15.1598 31 17.4V22.6C31 24.8402 31 25.9603 30.564 26.816C30.1805 27.5686 29.5686 28.1805 28.816 28.564C27.9603 29 26.8402 29 24.6 29H15.4C13.1598 29 12.0397 29 11.184 28.564C10.4314 28.1805 9.81947 27.5686 9.43597 26.816C9 25.9603 9 24.8402 9 22.6V17.4ZM14.5547 15.1679C14.0952 14.8616 13.4743 14.9858 13.1679 15.4453C12.8616 15.9048 12.9858 16.5257 13.4453 16.8321L19.4453 20.8321C19.7812 21.056 20.2188 21.056 20.5547 20.8321L26.5547 16.8321C27.0142 16.5257 27.1384 15.9048 26.8321 15.4453C26.5257 14.9858 25.9048 14.8616 25.4453 15.1679L20 18.7981L14.5547 15.1679Z" fill="white"/>
</svg>
